<svg width="100" height="63" viewBox="0 0 100 63" fill="none" xmlns="http://www.w3.org/2000/svg">
<rect x="0.5" y="0.5" width="99" height="61.5" fill="#FFE600" stroke="black"/>
<g clip-path="url(#clip0_332_56)">
<path d="M13.775 46.3795C12.7745 45.5392 11.8833 44.7997 11.7946 44.7363C11.6403 44.6258 11.6482 44.6017 11.9788 44.1727C12.1688 43.9262 12.7268 43.237 13.2188 42.6411C13.7108 42.0452 14.1134 41.5089 14.1134 41.4493C14.1134 41.3897 13.9166 41.0967 13.6761 40.7983C13.4356 40.4998 12.9949 39.8844 12.6968 39.4307C12.3987 38.977 12.1031 38.6057 12.0399 38.6057C11.9768 38.6057 11.1179 38.8913 10.1312 39.2403C9.14453 39.5893 8.3043 39.8749 8.26401 39.8749C8.22372 39.8749 8.19076 39.8303 8.19076 39.7759C8.19076 39.6719 7.73415 38.3805 6.70581 35.5761C6.56677 35.197 6.53906 35.0324 6.6101 35.0079C7.22268 34.7961 10.2442 33.6192 10.2881 33.5754C10.3033 33.5602 10.256 33.1461 10.1832 32.6553C10.1103 32.1644 10.0458 31.3657 10.0399 30.8805L10.0292 29.9982L9.30033 29.8683C7.31702 29.5149 6.03027 29.2738 6.00331 29.2506C5.98687 29.2365 6.03326 28.9275 6.1064 28.5639C6.17955 28.2003 6.31799 27.4269 6.41405 26.8452C6.77039 24.6875 6.88222 24.1792 6.99526 24.2034C7.51143 24.3142 10.1824 24.7287 10.5037 24.7479L10.913 24.7723L11.2383 23.9685C11.4173 23.5264 11.7394 22.8265 11.9542 22.4131C12.169 21.9997 12.3333 21.6166 12.3195 21.5617C12.2921 21.4532 11.3088 20.5733 10.0773 19.5552L9.2986 18.9115L9.99266 18.0817C10.7529 17.1727 11.3708 16.4257 12.0768 15.562C12.5004 15.0439 12.702 14.9 12.7738 15.0647C12.822 15.1754 14.4689 16.518 14.9158 16.8111C15.1493 16.9641 15.4697 17.1332 15.6279 17.1869C15.8314 17.256 17.2843 17.2845 20.5987 17.2845H25.2819L25.2848 24.9627C25.288 33.366 25.2933 33.4685 25.7782 34.5046C26.4306 35.8987 27.742 36.5928 29.7238 36.5928C31.7057 36.5928 33.0171 35.8987 33.6695 34.5046C34.1544 33.4685 34.1597 33.366 34.1629 24.9627L34.1658 17.2845H64.5829H95V22.1917V27.099H92.7155H90.4311V31.7102V36.3213H92.7155H95V41.2286V46.1359H84.9315H74.863V41.2286V36.3213H77.1474H79.4319V31.7102V27.099H72.4516H65.4713V36.6174V46.1359H59.9717H54.4721V36.6174V27.099H49.8291H45.1862L45.1404 30.6314C45.0831 35.0557 44.9319 36.2835 44.1737 38.4788C42.5668 43.1315 38.9466 45.8414 33.1928 46.6986C31.7488 46.9137 27.7062 46.9167 26.2549 46.7037C23.6801 46.3258 21.3914 45.5276 19.7515 44.4356C18.9302 43.8888 19.0138 43.8372 17.2007 46.0089C16.3266 47.056 15.6075 47.9114 15.6028 47.91C15.598 47.9085 14.7755 47.2198 13.775 46.3795Z" fill="black"/>
</g>
<defs>
<clipPath id="clip0_332_56">
<rect width="89" height="32.91" fill="white" transform="translate(6 15)"/>
</clipPath>
</defs>
</svg>
