<svg width="152" height="56" viewBox="0 0 152 56" fill="none" xmlns="http://www.w3.org/2000/svg">
<g clip-path="url(#clip0_5_77)">
<path d="M13.2407 53.4398C11.5369 52.0088 10.0192 50.7495 9.86823 50.6413C9.60542 50.4532 9.61886 50.4121 10.1819 49.6816C10.5054 49.2618 11.4556 48.088 12.2936 47.0732C13.1315 46.0584 13.8171 45.145 13.8171 45.0436C13.8171 44.9421 13.482 44.4431 13.0724 43.9349C12.6628 43.4266 11.9123 42.3785 11.4046 41.6058C10.8969 40.8331 10.3935 40.2009 10.286 40.2009C10.1784 40.2009 8.71565 40.6873 7.03538 41.2816C5.3551 41.876 3.92419 42.3623 3.85558 42.3623C3.78698 42.3623 3.73084 42.2864 3.73084 42.1938C3.73084 42.0167 2.95324 39.8174 1.20198 35.0415C0.965208 34.3958 0.91802 34.1156 1.039 34.0737C2.08222 33.7131 7.22782 31.7089 7.30258 31.6341C7.32842 31.6083 7.24801 30.9032 7.12388 30.0672C6.99975 29.2312 6.88997 27.8711 6.87991 27.0447L6.86163 25.5422L5.62043 25.321C2.24287 24.7191 0.0515563 24.3085 0.00564414 24.2691C-0.0223642 24.245 0.0566388 23.7187 0.181206 23.0995C0.305771 22.4803 0.541537 21.1632 0.70513 20.1726C1.31197 16.4979 1.50242 15.6323 1.69493 15.6736C2.57394 15.8622 7.12253 16.5681 7.66977 16.6008L8.36671 16.6424L8.9208 15.2735C9.22556 14.5207 9.77415 13.3287 10.1399 12.6247C10.5057 11.9207 10.7856 11.2682 10.762 11.1748C10.7154 10.9899 9.04084 9.49137 6.94356 7.75764L5.61748 6.66142L6.79947 5.24818C8.09421 3.70013 9.14643 2.42801 10.3488 0.957156C11.0701 0.0746927 11.4134 -0.170238 11.5357 0.110263C11.6178 0.29876 14.4224 2.58524 15.1836 3.08427C15.5811 3.34492 16.1268 3.63295 16.3961 3.72434C16.7428 3.84194 19.2171 3.8905 24.8614 3.8905H32.8368L32.8418 16.9666C32.8473 31.2776 32.8564 31.4521 33.6821 33.2166C34.7931 35.5908 37.0264 36.7728 40.4015 36.7728C43.7765 36.7728 46.0099 35.5908 47.1209 33.2166C47.9466 31.4521 47.9556 31.2776 47.9611 16.9666L47.9661 3.8905H99.7661H151.566V12.2477V20.6048H147.676H143.785V28.4577V36.3105H147.676H151.566V44.6677V53.0249H134.42H117.273V44.6677V36.3105H121.163H125.054V28.4577V20.6048H113.166H101.279V36.8148V53.0249H91.9133H82.5475V36.8148V20.6048H74.6406H66.7337L66.6558 26.6205C66.5582 34.1552 66.3006 36.2461 65.0095 39.9848C62.273 47.9083 56.1077 52.5234 46.3091 53.9832C43.8499 54.3496 36.9655 54.3546 34.4938 53.9919C30.109 53.3484 26.2114 51.9891 23.4186 50.1294C22.02 49.198 22.1625 49.1101 19.0747 52.8087C17.5861 54.5918 16.3615 56.0487 16.3534 56.0463C16.3453 56.0437 14.9446 54.8709 13.2407 53.4398Z" fill="#141414"/>
</g>
<defs>
<clipPath id="clip0_5_77">
<rect width="152" height="56" fill="white"/>
</clipPath>
</defs>
</svg>
